<svg width="314px" height="94px" viewBox="0 0 314 94" version="1.1" xmlns="http://www.w3.org/2000/svg" xmlns:xlink="http://www.w3.org/1999/xlink">
	<!-- Generator: Sketch 43.1 (39012) - http://www.bohemiancoding.com/sketch -->
	<desc>
		Created with Sketch.
	</desc>
	<defs>
		<rect id="path-1" x="22.2222222" y="-1.82608696" width="11.5555556" height="45.6521739" rx="1.80499995">
		</rect>
		<rect id="path-2" x="6.2895627" y="17.7793217" width="11.5555556" height="22.5760376" rx="1.80499995">
		</rect>
	</defs>
	<g id="Page-1" stroke="none" stroke-width="1" fill="none" fill-rule="evenodd">
		<g id="Logo---Text-Copy">
			<path d="M158.39,70.05 C157.376662,70.8733375 155.935843,71.554164 154.0675,72.0925 C152.199157,72.630836 150.536674,72.9 149.08,72.9 C143.379972,72.9 138.899183,71.4591811 135.6375,68.5775 C132.375817,65.6958189 130.745,61.5950266 130.745,56.275 L130.745,34.52 L124.57,34.52 L124.57,25.02 L130.745,25.02 L130.745,14.095 L143,11.91 L143,25.02 L151.36,25.02 L155.16,34.52 L143,34.52 L143,54.09 C143,56.4966787 143.569994,58.4758256 144.71,60.0275 C145.850006,61.5791744 147.528322,62.355 149.745,62.355 C150.568337,62.355 151.391663,62.260001 152.215,62.07 C153.038337,61.8799991 153.893329,61.5633356 154.78,61.12 L158.39,70.05 Z M174.022019,73.185 L176.207019,67.77 L159.772019,26.635 L172.502019,24.925 L183.142019,52.855 L193.212019,24.925 L206.227019,24.925 L185.612019,77.08 C184.155345,80.8166854 181.590371,84.0149867 177.917019,86.675 C174.243667,89.3350133 170.380372,91.1399953 166.327019,92.09 L161.957019,81.925 C164.173697,80.9749953 166.53284,79.8191735 169.034519,78.4575 C171.536198,77.0958265 173.198681,75.3383441 174.022019,73.185 Z M233.544038,61.595 C237.787392,61.595 240.764029,60.059182 242.474038,56.9875 C244.184046,53.915818 245.039038,50.7966825 245.039038,47.63 C245.039038,44.019982 244.279045,40.7900143 242.759038,37.94 C241.23903,35.0899858 238.167394,33.665 233.544038,33.665 C232.214031,33.665 230.836545,33.9024976 229.411538,34.3775 C227.986531,34.8525024 226.640711,35.5016626 225.374038,36.325 L225.374038,58.935 C226.640711,59.6950038 227.986531,60.3283308 229.411538,60.835 C230.836545,61.3416692 232.214031,61.595 233.544038,61.595 Z M213.119038,24.925 L219.389038,24.925 L222.049038,28.345 C224.139048,26.7616588 226.577357,25.4950048 229.364038,24.545 C232.150718,23.5949953 234.620694,23.12 236.774038,23.12 C243.550738,23.12 248.74402,25.4633099 252.354038,30.15 C255.964056,34.8366901 257.769038,40.6632985 257.769038,47.63 C257.769038,54.5967015 255.916556,60.4233099 252.211538,65.11 C248.506519,69.7966901 243.360737,72.14 236.774038,72.14 C235.127363,72.14 233.274881,71.8550029 231.216538,71.285 C229.158194,70.7149972 227.210713,69.9233384 225.374038,68.91 L225.374038,90.855 L213.119038,91.805 L213.119038,24.925 Z M288.791056,72.14 C281.507687,72.14 275.823577,69.9391887 271.738556,65.5375 C267.653536,61.1358113 265.611056,55.2300371 265.611056,47.82 C265.611056,40.4732966 267.748535,34.6150219 272.023556,30.245 C276.298578,25.8749782 282.141019,23.69 289.551056,23.69 C297.214428,23.69 303.151869,25.954144 307.363556,30.4825 C311.575244,35.010856 313.681056,40.9482966 313.681056,48.295 C313.681056,55.6417034 311.401079,61.4524786 306.841056,65.7275 C302.281034,70.0025214 296.264427,72.14 288.791056,72.14 Z M300.951056,48.295 C300.951056,43.9249782 299.985233,40.4891792 298.053556,37.9875 C296.12188,35.4858208 293.382741,34.235 289.836056,34.235 C286.226038,34.235 283.407733,35.3433223 281.381056,37.56 C279.35438,39.7766778 278.341056,43.1649772 278.341056,47.725 C278.341056,52.2850228 279.211881,55.736655 280.953556,58.08 C282.695232,60.4233451 285.371038,61.595 288.981056,61.595 C292.527741,61.595 295.409379,60.5341773 297.626056,58.4125 C299.842734,56.2908227 300.951056,52.9183565 300.951056,48.295 Z" id="typo" fill="#1D2B4C">
			</path>
			<g id="Group-3-Copy">
				<rect id="Rectangle-3" stroke="#1D2B4C" stroke-width="9.02499977" x="4.51249989" y="4.51249989" width="84.9750002" height="84.9750002" rx="9.02499977">
				</rect>
				<g id="Group-2" transform="translate(22.000000, 26.000000)">
					<g id="Rectangle-4" transform="translate(28.000000, 21.000000) rotate(45.000000) translate(-28.000000, -21.000000) ">
						<use fill="#1D2B4C" fill-rule="evenodd" xlink:href="#path-1">
						</use>
						<rect x="22.2222222" y="-1.82608696" width="11.5555556" height="45.6521739" rx="1.80499995">
						</rect>
					</g>
					<g id="Rectangle-4" transform="translate(12.067340, 29.067340) rotate(-4545.000000) translate(-12.067340, -29.067340) ">
						<use fill="#1D2B4C" fill-rule="evenodd" xlink:href="#path-2">
						</use>
						<rect x="6.2895627" y="17.7793217" width="11.5555556" height="22.5760376" rx="1.80499995">
						</rect>
					</g>
				</g>
			</g>
		</g>
	</g>
</svg>
